<svg xmlns="http://www.w3.org/2000/svg" id="Livello_1" data-name="Livello 1" viewBox="0 0 400 400"><defs><style></style></defs><path class="cls-1" d="M127.83,395A20.37,20.37,0,0,1,109,382.45L6.55,135.6a20.36,20.36,0,0,1,11-26.58L264.39,6.55a20.34,20.34,0,0,1,26.58,11h0l74.55,179.6,18.24,43.59-.05.23,9.73,23.43a20.33,20.33,0,0,1-11,26.58L135.6,393.44A20.32,20.32,0,0,1,127.83,395ZM272.25,13.35a12.37,12.37,0,0,0-4.67.9L20.73,116.71a12,12,0,0,0-6.48,15.7L116.71,379.25a12,12,0,0,0,15.7,6.49L379.26,283.28a12,12,0,0,0,6.49-15.7L375,241.77l.05-.22-17.25-41.21L283.28,20.73a12.36,12.36,0,0,0-6.51-6.49A11.65,11.65,0,0,0,272.25,13.35Z"></path><circle class="cls-2" cx="208.05" cy="110.44" r="25.76"></circle><path class="cls-2" d="M113,133.37A21.33,21.33,0,1,1,91.64,154.7,21.36,21.36,0,0,1,113,133.37m0-4.43a25.76,25.76,0,1,0,25.77,25.76A25.76,25.76,0,0,0,113,128.94Z"></path><path class="cls-2" d="M202.23,177.79a21.33,21.33,0,1,1-21.32,21.33,21.35,21.35,0,0,1,21.32-21.33m0-4.43A25.76,25.76,0,1,0,228,199.12a25.76,25.76,0,0,0-25.76-25.76Z"></path><path class="cls-2" d="M205.39,268.25a21.32,21.32,0,1,1-21.32,21.32,21.35,21.35,0,0,1,21.32-21.32m0-4.44a25.76,25.76,0,1,0,25.77,25.76,25.76,25.76,0,0,0-25.77-25.76Z"></path><circle class="cls-2" cx="305.11" cy="199.27" r="25.76"></circle><circle class="cls-2" cx="111.53" cy="246.49" r="25.76"></circle><rect class="cls-2" x="131.43" y="129.74" width="56.25" height="3.12" transform="translate(-40.6 79.96) rotate(-25.06)"></rect><rect class="cls-2" x="255.15" y="113.39" width="3.12" height="82.86" transform="translate(-28.81 246.17) rotate(-48.83)"></rect><rect class="cls-2" x="212.71" y="242.69" width="84.68" height="3.12" transform="translate(-97.94 234.01) rotate(-42.1)"></rect><rect class="cls-2" x="156.2" y="241.04" width="3.12" height="54.17" transform="translate(-152.83 285.75) rotate(-62.78)"></rect><rect class="cls-2" x="155.53" y="166.88" width="3.12" height="114.66" transform="translate(-96.28 120.51) rotate(-32.72)"></rect><rect class="cls-2" x="101.33" y="177.72" width="117.02" height="3.12" transform="translate(-77.03 219.09) rotate(-57.82)"></rect><rect class="cls-2" x="155.89" y="151.45" width="3.12" height="50.52" transform="translate(-71.22 237.78) rotate(-63.25)"></rect><rect class="cls-2" x="130.61" y="221.08" width="53.67" height="3.12" transform="translate(-89.43 106.83) rotate(-29.6)"></rect></svg>