<svg xmlns="http://www.w3.org/2000/svg" id="Livello_1" data-name="Livello 1" viewBox="0 0 400 400"><defs><style></style></defs><path class="cls-1" d="M127.81,395A20.36,20.36,0,0,1,109,382.44L6.57,135.59a20.33,20.33,0,0,1,11-26.58L264.4,6.55a20.34,20.34,0,0,1,26.58,11h0l74.55,179.59,18.25,43.62,0,.22,9.72,23.41a20.37,20.37,0,0,1-11,26.58L135.61,393.43A20.33,20.33,0,0,1,127.81,395ZM272.27,13.34a12.54,12.54,0,0,0-4.68.9L20.74,116.7a12,12,0,0,0-6.48,15.7L116.72,379.25a12,12,0,0,0,15.7,6.49L379.26,283.27a12,12,0,0,0,6.49-15.69L375,241.75l.05-.22-17.23-41.2L283.29,20.73a12.34,12.34,0,0,0-6.5-6.5A11.87,11.87,0,0,0,272.27,13.34Z"></path><path class="cls-2" d="M200.33,171.42a2.08,2.08,0,0,1-2.08-2.08V103.45a2.08,2.08,0,1,1,4.16,0v65.89A2.08,2.08,0,0,1,200.33,171.42Z"></path><path class="cls-2" d="M118,252a2.08,2.08,0,0,1-1.07-3.87l54.58-32.33a2.08,2.08,0,1,1,2.12,3.58l-54.57,32.33A2.07,2.07,0,0,1,118,252Z"></path><path class="cls-2" d="M282.58,251.81a2.05,2.05,0,0,1-1.06-.3l-56.36-33.77a2.08,2.08,0,0,1,2.14-3.57l56.36,33.77a2.09,2.09,0,0,1-1.08,3.87Z"></path><path class="cls-2" d="M117.87,268.94a2.08,2.08,0,0,1-2.08-2.09V153a2.09,2.09,0,0,1,1-1.79l82.46-49.51a2.07,2.07,0,0,1,2.16,0l74.66,45.88a2.08,2.08,0,0,1-2.18,3.55l-73.58-45.22L120,154.15v112.7A2.08,2.08,0,0,1,117.87,268.94Z"></path><path class="cls-2" d="M200.33,298.63a2.08,2.08,0,0,1-1-.27L123.83,256a2.08,2.08,0,1,1,2-3.63l74.47,41.79,80.17-45.64-.15-109.4a2.09,2.09,0,0,1,2.08-2.09h0a2.08,2.08,0,0,1,2.08,2.08l.15,110.61a2.08,2.08,0,0,1-1.05,1.81l-82.26,46.83A2.09,2.09,0,0,1,200.33,298.63Z"></path><path class="cls-2" d="M200.33,298.11a1.56,1.56,0,0,1-1.56-1.56l-.21-55.7a1.58,1.58,0,0,1,1.56-1.57h0a1.57,1.57,0,0,1,1.56,1.56l.2,55.7a1.56,1.56,0,0,1-1.55,1.57Z"></path><path class="cls-2" d="M231.77,184.4a1.56,1.56,0,0,1-.77-2.92L281.37,153a1.56,1.56,0,0,1,1.54,2.72L232.54,184.2A1.64,1.64,0,0,1,231.77,184.4Z"></path><path class="cls-2" d="M167.39,183.85a1.55,1.55,0,0,1-.78-.21l-49.32-28.73a1.56,1.56,0,0,1,1.57-2.7l49.32,28.73a1.56,1.56,0,0,1-.79,2.91Z"></path><path class="cls-2" d="M122.28,268.17a8,8,0,0,0-7.52-.68l-.15.08a7.88,7.88,0,0,0-3.44,2.9,8,8,0,1,0,11.11-2.3Z"></path><path class="cls-2" d="M286.54,127.09a8,8,0,0,0-7.52-.69.71.71,0,0,1-.15.08,8,8,0,1,0,7.67.61Z"></path><path class="cls-2" d="M200.12,199.14l26.47-15.22-25.35-16a1.71,1.71,0,0,0-1.76,0l-26.84,15.5Z"></path><path class="cls-2" d="M198.42,202.09l-27.08-15.55-.15,31.06a1.68,1.68,0,0,0,.86,1.49l26.37,15Z"></path><path class="cls-2" d="M201.83,202.09v32l25.34-16.69a1.7,1.7,0,0,0,.76-1.43V187.07Z"></path></svg>