<svg xmlns="http://www.w3.org/2000/svg" id="Livello_1" data-name="Livello 1" viewBox="0 0 400 400"><defs><style></style></defs><path class="cls-1" d="M127.8,395A20.36,20.36,0,0,1,109,382.44L6.55,135.59a20.37,20.37,0,0,1,11-26.58L264.39,6.55a20.33,20.33,0,0,1,26.58,11l74.55,179.59,18.24,43.6-.05.23,9.73,23.42a20.35,20.35,0,0,1-11,26.59L135.6,393.43A20.37,20.37,0,0,1,127.8,395ZM272.25,13.34a12.52,12.52,0,0,0-4.67.9L20.73,116.7a12,12,0,0,0-6.49,15.7L116.71,379.25a12,12,0,0,0,15.7,6.49L379.26,283.27a12,12,0,0,0,6.49-15.69L375,241.76l.05-.21-17.25-41.22L283.28,20.73a12.38,12.38,0,0,0-6.5-6.5A11.89,11.89,0,0,0,272.25,13.34Z"></path><path class="cls-2" d="M266.59,222.71H246.86a2.15,2.15,0,0,1,0-4.3h19.73a38.87,38.87,0,0,0,0-77.73,39.5,39.5,0,0,0-6.5.59l-1.64.28-.68-1.52a40.4,40.4,0,0,0-49.86-21.86l-1.34.45-.95-1.07A43,43,0,0,0,130.44,146l.1,3.05-2.17,0a34.33,34.33,0,0,0,.51,68.66h22.83a2.15,2.15,0,0,1,0,4.3H128.88a38.63,38.63,0,0,1-2.72-77.16,47.23,47.23,0,0,1,81.73-31.18A44.65,44.65,0,0,1,261,136.79a41,41,0,0,1,5.6-.4,43.16,43.16,0,1,1,0,86.32Z"></path><rect class="cls-2" x="257.71" y="164.35" width="7.86" height="7.86" rx="0.83"></rect><rect class="cls-2" x="244.47" y="164.29" width="7.86" height="7.86" rx="0.83"></rect><rect class="cls-2" x="257.71" y="178.05" width="7.86" height="7.86" rx="0.83"></rect><rect class="cls-2" x="271" y="178.05" width="7.86" height="7.86" rx="0.83"></rect><rect class="cls-2" x="244.47" y="177.99" width="7.86" height="7.86" rx="0.83"></rect><rect class="cls-2" x="257.71" y="191.56" width="7.86" height="7.86" rx="0.83"></rect><rect class="cls-2" x="244.47" y="191.5" width="7.86" height="7.86" rx="0.83"></rect><rect class="cls-2" x="132.27" y="191.5" width="7.86" height="7.86" rx="0.83" transform="translate(272.4 390.85) rotate(180)"></rect><rect class="cls-2" x="145.51" y="191.56" width="7.86" height="7.86" rx="0.83" transform="translate(298.89 390.97) rotate(180)"></rect><rect class="cls-2" x="132.27" y="177.8" width="7.86" height="7.86" rx="0.83" transform="translate(272.4 363.46) rotate(180)"></rect><rect class="cls-2" x="119.28" y="177.8" width="7.86" height="7.86" rx="0.83" transform="translate(246.42 363.46) rotate(180)"></rect><rect class="cls-2" x="145.51" y="177.86" width="7.86" height="7.86" rx="0.83" transform="translate(298.89 363.57) rotate(180)"></rect><rect class="cls-2" x="132.27" y="164.29" width="7.86" height="7.86" rx="0.83" transform="translate(272.4 336.45) rotate(180)"></rect><rect class="cls-2" x="145.51" y="164.35" width="7.86" height="7.86" rx="0.83" transform="translate(298.89 336.57) rotate(180)"></rect><path class="cls-2" d="M198.92,222.91a39.76,39.76,0,1,1,39.76-39.76A39.8,39.8,0,0,1,198.92,222.91Zm0-75.23a35.47,35.47,0,1,0,35.47,35.47A35.51,35.51,0,0,0,198.92,147.68Z"></path><path class="cls-2" d="M198.92,222.91c-13.64,0-24.33-17.46-24.33-39.76s10.69-39.76,24.33-39.76,24.33,17.46,24.33,39.76S212.56,222.91,198.92,222.91Zm0-75.23c-11,0-20,15.91-20,35.47s9,35.47,20,35.47,20-15.91,20-35.47S210,147.68,198.92,147.68Z"></path><rect class="cls-2" x="196.77" y="145.53" width="4.29" height="75.23"></rect><rect class="cls-2" x="161.31" y="181" width="75.23" height="4.29"></rect><path class="cls-2" d="M205.39,301.31a2.14,2.14,0,0,1-2.14-2.15V222a2.15,2.15,0,1,1,4.29,0v77.14A2.15,2.15,0,0,1,205.39,301.31Z"></path><path class="cls-2" d="M192.56,301.31a2.15,2.15,0,0,1-2.15-2.15V222a2.15,2.15,0,1,1,4.3,0v77.14A2.15,2.15,0,0,1,192.56,301.31Z"></path><path class="cls-2" d="M274.43,283.46H216.08V233a2.15,2.15,0,1,1,4.29,0v46.13h54.06a2.15,2.15,0,1,1,0,4.29Z"></path><path class="cls-2" d="M181.87,283.46H123.52a2.15,2.15,0,1,1,0-4.29h54.06V233a2.15,2.15,0,1,1,4.29,0Z"></path></svg>