<svg xmlns="http://www.w3.org/2000/svg" id="Livello_1" viewBox="0 0 141.73 141.73"><defs><style></style></defs><path class="cls-1" d="m141.17,94.27l-3.53-8.51.02-.08-6.63-15.85L103.93,4.56c-.35-.85-1.45-2.94-4-4-2.55-1.05-4.81-.35-5.66,0L4.56,37.8c-3.76,1.56-5.56,5.9-3.99,9.66l37.24,89.71c1.18,2.84,3.94,4.56,6.84,4.56.94,0,1.9-.18,2.82-.56l89.71-37.24c3.76-1.56,5.56-5.9,3.99-9.66Zm-5.15,6.87l-89.71,37.24c-2.22.92-4.78-.14-5.71-2.36L3.36,46.3c-.92-2.22.14-4.78,2.36-5.71L95.43,3.36c.24-.1.88-.33,1.7-.33.5,0,1.06.08,1.64.32,1.55.64,2.2,1.97,2.36,2.36l27.09,65.27,6.27,14.97-.02.08,3.9,9.38c.92,2.22-.14,4.78-2.36,5.71Z"></path><path class="cls-1" d="m112.13,78.45c-.28-2.32-.93-4.62-1.96-6.8l-4.66.7-3.36-4.21,1.72-4.39c-1.89-1.49-3.99-2.64-6.19-3.42l-2.8,3.79-5.36-.6-1.89-4.32c-2.32.28-4.62.93-6.8,1.96l.7,4.66-4.21,3.36-4.39-1.72c-1.49,1.89-2.64,3.99-3.42,6.19l3.79,2.8-.6,5.36-4.32,1.88c.28,2.32.93,4.62,1.96,6.8l4.66-.7,3.36,4.21-1.72,4.39c1.89,1.49,3.99,2.64,6.19,3.42l2.8-3.79,5.36.6,1.88,4.32c2.32-.28,4.62-.93,6.8-1.96l-.7-4.66,4.21-3.36,4.39,1.72c1.49-1.89,2.64-3.99,3.42-6.19l-3.79-2.8.6-5.36,4.32-1.89Zm-17.02,8.7c-3.36,2.68-8.25,2.13-10.93-1.23-2.68-3.36-2.13-8.25,1.23-10.93,3.36-2.68,8.25-2.13,10.93,1.23,2.68,3.36,2.13,8.25-1.23,10.93Z"></path><path class="cls-1" d="m36.71,67.71c2.61,5.65,8.21,8.99,14.07,8.99,2.16,0,4.36-.46,6.45-1.42,7.74-3.57,11.14-12.78,7.56-20.52-3.57-7.74-12.78-11.14-20.52-7.56-7.74,3.57-11.14,12.78-7.56,20.52Zm14.02-18.94c4.71,0,9.24,2.69,11.34,7.24,2.88,6.24.14,13.66-6.1,16.54-6.24,2.88-13.66.14-16.54-6.1-1.39-3.02-1.53-6.41-.38-9.53,1.15-3.12,3.45-5.61,6.47-7.01,1.69-.78,3.46-1.15,5.2-1.15Z"></path><path class="cls-1" d="m39.34,47.89c.27.1.57,0,.73-.24,0-.01.77-1.1,3.36-2.3,2.56-1.18,3.89-1.07,3.93-1.07.12.01.24,0,.34-.05.14-.07.26-.19.32-.34.11-.27.01-.57-.22-.74l-7.09-5.01c-.18-.13-.42-.15-.62-.06-.2.09-.34.29-.36.51l-.79,8.65c-.03.28.15.55.41.64Z"></path><path class="cls-1" d="m32.71,58.12c.16.23.46.33.73.23.27-.1.43-.37.41-.65,0-.01-.12-1.34,1.1-3.92,1.2-2.55,2.29-3.32,2.32-3.34.1-.07.18-.16.22-.26.07-.14.08-.31.03-.47-.09-.27-.36-.45-.65-.42l-8.65.72c-.22.02-.42.15-.52.36-.1.2-.08.44.05.63l4.95,7.13Z"></path><path class="cls-1" d="m33.85,65.69c-.72-2.73-.38-4.02-.37-4.05.04-.11.04-.23,0-.34-.04-.15-.14-.29-.28-.38-.25-.15-.56-.11-.77.09l-6.17,6.11c-.16.16-.22.39-.16.6.06.22.23.39.44.45l8.38,2.28c.27.08.56-.05.71-.3.14-.25.09-.56-.11-.76,0,0-.95-.95-1.68-3.71Z"></path><path class="cls-1" d="m44.91,77.79c-.05-.28-.29-.49-.57-.51-.01,0-1.34-.12-3.67-1.76-2.3-1.63-2.87-2.83-2.89-2.87-.05-.11-.12-.2-.22-.27-.13-.09-.29-.13-.46-.11-.28.04-.5.28-.53.56l-.79,8.65c-.02.22.08.44.26.57.18.13.42.15.62.06l7.89-3.64c.26-.12.4-.4.35-.68Z"></path><path class="cls-1" d="m56.15,77.65s-1.1.77-3.94,1.01c-2.81.23-4.02-.33-4.05-.34-.11-.05-.22-.08-.34-.07-.16.01-.31.09-.42.21-.19.22-.21.54-.04.77l4.95,7.13c.13.18.34.29.57.27.22-.02.42-.16.52-.36l3.7-7.86c.12-.26.05-.56-.17-.75-.22-.18-.54-.19-.77-.02Z"></path><path class="cls-1" d="m68.7,79.33c.16-.16.22-.39.17-.61l-2.21-8.4c-.07-.28-.32-.46-.61-.46-.28,0-.53.2-.61.48,0,.01-.35,1.3-2.37,3.31-2,1.99-3.29,2.34-3.32,2.34-.12.03-.22.09-.3.17-.11.11-.18.26-.19.43,0,.29.18.54.46.62l8.38,2.28c.22.06.45,0,.61-.16Z"></path><path class="cls-1" d="m68.01,58.02c-.22.18-.28.5-.16.75,0,.01.57,1.22.31,4.06-.26,2.81-1.02,3.9-1.04,3.93-.07.1-.11.21-.12.32-.01.16.03.32.13.45.18.22.49.3.75.18l7.89-3.64c.2-.09.34-.29.36-.51.02-.22-.08-.44-.26-.57l-7.09-5.01c-.23-.17-.55-.15-.77.04Z"></path><path class="cls-1" d="m62.27,48.35s1.22.57,2.84,2.91c1.61,2.32,1.73,3.65,1.73,3.68,0,.12.05.23.11.32.09.13.23.22.39.26.28.06.57-.09.69-.35l3.7-7.85c.1-.2.08-.44-.05-.62-.13-.18-.34-.29-.57-.27l-8.65.72c-.28.02-.51.24-.56.52-.05.28.1.56.36.68Z"></path><path class="cls-1" d="m51.3,43.96s1.3-.35,4.05.4c2.72.74,3.67,1.68,3.69,1.71.08.09.18.15.29.18.15.04.32.03.47-.05.25-.14.38-.43.31-.71l-2.21-8.4c-.06-.22-.22-.39-.44-.45-.22-.06-.45,0-.61.16l-6.16,6.12c-.2.2-.24.51-.1.76.14.25.44.36.71.29Z"></path><path class="cls-1" d="m77.21,52.72s.07-.07.19-.19c.02-.02.03-.03.05-.05.02-.01.03-.03.05-.04.03-.03.07-.06.11-.1.08-.07.19-.15.3-.24.24-.17.54-.36.92-.53.38-.17.83-.32,1.35-.42.52-.11,1.09-.16,1.72-.17.62-.01,1.28.02,1.97.09.07,0,.14.02.21.02v.04c.02.13.05.27.07.41.05.27.12.53.2.79.16.52.38,1.02.66,1.49.28.47.62.9,1,1.28.38.38.81.72,1.27,1,.92.57,1.94.93,2.99,1.12,1.05.19,2.12.22,3.16.1,1.05-.12,2.08-.38,3.06-.78.98-.4,1.9-.94,2.71-1.61.81-.67,1.51-1.49,2.03-2.41.52-.92.86-1.93,1.02-2.97,0-.02,0-.05,0-.07-.03-.07-.11-.11-.18-.09h0s0,0,0,0c-.38.15-.79.21-1.2.18-.41-.03-.81-.14-1.2-.29-.78-.31-1.5-.76-2.2-1.23-.7-.48-1.4-.97-2.11-1.44-.71-.47-1.45-.91-2.24-1.27-.39-.17-.8-.33-1.22-.45-.21-.06-.42-.11-.64-.15-.11-.02-.21-.04-.32-.06-.11-.01-.22-.03-.33-.04-.87-.1-1.77-.04-2.63.22-.43.13-.84.31-1.23.54-.38.24-.75.52-1.06.85-.32.33-.58.7-.8,1.1-.11.2-.2.41-.28.62-.08.21-.12.48-.02.66.08.14.28.14.38.14,6.86-.18,8.91,4.27,14.71,2.53-.17.05-.37.19-.65.31-.3.12-.68.26-1.12.37-.44.11-.95.2-1.5.24-.56.05-1.16.05-1.8.02-.64-.04-1.31-.11-2-.22-1.38-.21-2.84-.55-4.3-.89-1.46-.34-2.93-.69-4.35-.91-.71-.11-1.4-.18-2.07-.2-.67-.02-1.31,0-1.9.09-.59.08-1.14.23-1.6.41-.47.18-.86.39-1.16.59-.15.1-.28.19-.4.29-.06.05-.11.09-.16.13-.02.02-.05.04-.07.06-.02.02-.04.03-.05.05-.13.12-.2.18-.2.18,0,0-.02.02-.02.02-.25.24-.25.64,0,.89.24.25.64.25.89,0Z"></path><path class="cls-1" d="m64.04,93.52s-.07.07-.19.19c-.02.02-.03.03-.05.05-.02.01-.03.03-.05.04-.03.03-.07.06-.11.1-.08.07-.19.15-.3.24-.24.17-.54.36-.92.53-.38.17-.83.32-1.35.42-.52.11-1.09.16-1.72.17-.62.01-1.28-.02-1.97-.09-.07,0-.14-.02-.21-.02v-.04c-.02-.13-.05-.27-.07-.41-.05-.27-.12-.53-.2-.79-.16-.52-.38-1.02-.66-1.49-.28-.47-.62-.9-1-1.28-.38-.38-.81-.72-1.27-1-.92-.57-1.94-.93-2.99-1.12-1.05-.19-2.12-.22-3.16-.1-1.05.12-2.08.38-3.06.78-.98.4-1.9.94-2.71,1.61-.81.67-1.51,1.49-2.03,2.41-.52.92-.86,1.93-1.02,2.97,0,.02,0,.05,0,.07.03.07.11.11.18.09h0s0,0,0,0c.38-.15.79-.21,1.2-.18.41.03.81.14,1.2.29.78.31,1.5.76,2.2,1.23.7.48,1.4.97,2.11,1.44.71.47,1.45.91,2.24,1.27.39.17.8.33,1.22.45.21.06.42.11.64.15.11.02.21.04.32.06.11.01.22.03.33.04.87.1,1.77.04,2.63-.22.43-.13.84-.31,1.23-.54.38-.24.75-.52,1.06-.85.32-.33.58-.7.8-1.1.11-.2.2-.41.28-.62.08-.21.12-.48.02-.66-.08-.14-.28-.14-.38-.14-6.86.18-8.91-4.27-14.71-2.53.17-.05.37-.19.65-.31.3-.12.68-.26,1.12-.37.44-.11.95-.2,1.5-.24.56-.05,1.16-.05,1.8-.02.64.04,1.31.11,2,.22,1.38.21,2.84.55,4.3.89,1.46.34,2.93.69,4.35.91.71.11,1.4.18,2.07.2.67.02,1.31,0,1.9-.09.59-.08,1.14-.23,1.6-.41.47-.18.86-.39,1.16-.59.15-.1.28-.19.4-.29.06-.05.11-.09.16-.13.02-.02.05-.04.07-.06.02-.02.04-.03.05-.05.13-.12.2-.18.2-.18,0,0,.02-.02.02-.02.25-.24.25-.64,0-.89-.24-.25-.64-.25-.89,0Z"></path></svg>