<svg xmlns="http://www.w3.org/2000/svg" xmlns:xlink="http://www.w3.org/1999/xlink" id="Livello_1" x="0px" y="0px" viewBox="0 0 400 400" style="enable-background:new 0 0 400 400;" xml:space="preserve"><style type="text/css"></style>
<g> <path class="st0" d="M393.5,264.4l-9.7-23.4v-0.2l-18.2-43.6L290.9,17.5c-4.3-10.4-16.2-15.3-26.6-11L17.5,109   c-10.4,4.3-15.2,16.2-10.9,26.6L109,382.5c3.2,7.6,10.6,12.5,18.8,12.5c2.7,0,5.3-0.5,7.8-1.5l247-102.5   C392.9,286.7,397.8,274.8,393.5,264.4z M379.2,283.3L132.3,385.7c-6.1,2.5-13.1-0.4-15.7-6.5L14.2,132.4   c-2.5-6.1,0.4-13.1,6.5-15.7L267.5,14.3c1.5-0.6,3.1-0.9,4.7-0.9c1.6,0,3.1,0.3,4.5,0.9c2.9,1.2,5.2,3.6,6.5,6.5l74.5,179.6   l17.2,41.2v0.2l10.7,25.8C388.2,273.7,385.3,280.7,379.2,283.3z"></path> <path class="st0" d="M250.4,153c-0.5-0.6-1.1-1.1-1.6-1.7l22.4-22.4c1.4,0.8,3,1.2,4.7,1.2c5.4,0,9.8-4.4,9.8-9.8   c0-5.4-4.4-9.8-9.8-9.8c-5.4,0-9.8,4.4-9.8,9.8c0,2.7,1.1,5.2,2.9,6.9l-22.1,22.1c-12.2-11.3-28-17.9-44.7-18.4v66.8h66.8   C268.4,181.1,261.8,165.2,250.4,153z M207.6,137c13.3,1.7,25.8,7.5,35.5,16.7c1,0.9,2,1.9,3.2,3.2c9.1,9.8,15,22.2,16.7,35.4h-55.4   V137z"></path> <path class="st0" d="M125.9,120.4c5,0,9-3.7,9.7-8.4h15.1l20.8,33.6c-4.9,2.5-9.4,5.8-13.5,9.6l39.7,39.6v-56.1   c-8.3,0.3-16.4,2.3-23.8,5.7l-21.7-35.1h-16.7c-0.7-4.8-4.7-8.4-9.7-8.4c-5.4,0-9.8,4.4-9.8,9.8S120.5,120.4,125.9,120.4z"></path> <path class="st0" d="M319.9,223.1c-5,0-9,3.7-9.7,8.4h-57.6c5.3-8.8,8.4-18.9,8.7-29.4h-60.4l-3.1,3l-39.5,39.7   c10.8,10.1,24.9,15.9,39.7,16.4c0.6,0,1.4,0,2.1,0c0.6,0,1.4,0,2.1,0c10-0.3,19.7-3.1,28.2-8l27.5,27.5h24.7   c0.7,4.8,4.7,8.4,9.7,8.4c5.4,0,9.8-4.4,9.8-9.8c0-5.4-4.4-9.8-9.8-9.8c-5,0-9,3.7-9.7,8.4h-23.6l-26.2-26.2c3.2-2,6.2-4.3,9-6.9   c1-1,2.1-2,3.1-3.1c2.2-2.3,4.2-4.8,5.9-7.5h59.4c0.7,4.8,4.7,8.4,9.7,8.4c5.4,0,9.8-4.4,9.8-9.8   C329.7,227.5,325.3,223.1,319.9,223.1z"></path> <path class="st0" d="M196.9,200l-41.8-41.7c-10.1,10.8-15.9,24.8-16.4,39.6c0,0.2,0,0.4,0,0.6h-43c-0.7-4.8-4.7-8.4-9.7-8.4   c-5.4,0-9.8,4.4-9.8,9.8s4.4,9.8,9.8,9.8c5,0,9-3.7,9.7-8.4h43c0,0.3,0,0.5,0,0.8c0.3,9.6,2.9,18.9,7.4,27.2l-23.6,23.6v27.5   c-4.8,0.7-8.4,4.7-8.4,9.7c0,5.4,4.4,9.8,9.8,9.8c5.4,0,9.8-4.4,9.8-9.8c0-5-3.7-9-8.4-9.7v-26.3l22.2-22.2c2.2,3.6,4.7,6.9,7.6,10   l39.6-39.6L196.9,200z"></path></g></svg>