<svg xmlns="http://www.w3.org/2000/svg" id="Livello_1" data-name="Livello 1" viewBox="0 0 400 400"><defs><style></style></defs><path class="cls-1" d="M127.83,395A20.37,20.37,0,0,1,109,382.45L6.55,135.6a20.36,20.36,0,0,1,11-26.58L264.39,6.56a20.32,20.32,0,0,1,26.58,11h0l74.55,179.6,18.25,43.61,0,.23,9.72,23.41a20.33,20.33,0,0,1-11,26.58L135.6,393.44A20.32,20.32,0,0,1,127.83,395ZM272.25,13.35a12.72,12.72,0,0,0-4.66.89L20.73,116.71a12,12,0,0,0-6.48,15.7L116.71,379.25a12,12,0,0,0,15.7,6.49L379.25,283.28a12,12,0,0,0,6.49-15.7L375,241.75l.05-.21-17.24-41.2L283.28,20.74a12.34,12.34,0,0,0-6.51-6.5A11.69,11.69,0,0,0,272.25,13.35Z"></path><path class="cls-2" d="M284.86,125.1a2.81,2.81,0,0,0-.22-1.1,2.86,2.86,0,0,0-1.56-1.55,2.76,2.76,0,0,0-1.09-.22H175.51v-11.4a2.87,2.87,0,0,0-1.81-2.66,2.81,2.81,0,0,0-.59-.12,2.54,2.54,0,0,0-.48-.09H135.26a2.77,2.77,0,0,0-1.1.22,2.85,2.85,0,0,0-.94.62L116,126.05a2.78,2.78,0,0,0-.63.94,3,3,0,0,0-.22,1.09v37.36a2.88,2.88,0,0,0,2.88,2.88h14.46V196L116.37,212a2.82,2.82,0,0,0-1.24,2.3s0,0,0,.06,0,0,0,.07h0v37.37h0v37.36a2.87,2.87,0,0,0,2.87,2.88H230.14a3,3,0,0,0,1.1-.22,2.84,2.84,0,0,0,.93-.63L249.42,274l0-.05h0l17.25-17.25,0,0h0L284,239.37a2.89,2.89,0,0,0,.85-2V202.84h0V165.47a.14.14,0,0,0,0-.07.14.14,0,0,0,0-.06V125.1ZM136.53,200h15.95v11.42H125.09Zm-.08-86.31h29.22l-11.5,11.5H125Zm21.79,15.56,11.52-11.51V125s0,.1,0,.15a.66.66,0,0,0,0,.15V147l-10.6,10.6a1.37,1.37,0,0,0-.17.17l-.75.75V129.27Zm16.42,21a2.78,2.78,0,0,0,.63-.94,3,3,0,0,0,.22-1.09v-2.92H183l-11.55,11.55h-3.34ZM208.4,128h29.21l-11.55,11.55H196.84Zm66.65,0-11.56,11.55h-29.3L245.75,128Zm4.06,70.78L267.56,210.3V182.77s0,0,0-.06,0-.05,0-.07V181l11.55-11.54ZM158.23,211.44V179.83h31.6v31.61Zm32.86-66.16h29.23l-11.55,11.55H179.54ZM233,178.14l11.51-11.5v29.23L233,207.37Zm17.26-17.25,11.54-11.54v29.22l-11.54,11.55Zm-4.07-4.07H216.9l11.55-11.54h29.3Zm-35,5.75h29.3L229,174.08h-29.3Zm-15.49,17.26h31.6v31.61h-31.6ZM233,215.5,244.52,204v29.36L233,244.86Zm17.26-17.25,11.54-11.55v29.36l-11.54,11.55Zm28.84-37-11.55,11.55V143.59L279.11,132Zm-105.32,1.3H203l-11.5,11.51H162.29Zm-52.91,54.62h31.59v31.73H120.88Zm37.36,0h31.59v31.73H158.24Zm37.42,0h31.6v31.73h-31.6ZM233,253l11.51-11.5v29.26L233,282.25Zm17.26-17.25,11.54-11.55v29.25L250.27,265Zm17.29-17.31,11.55-11.54v29.26l-11.55,11.54ZM200.27,128l-11.55,11.55H175.51V128Zm-79.39,3h31.61v31.61H120.88Zm34.47,37.36h0a2.88,2.88,0,0,0,2-.84l4.91-4.91h3.34l-12.34,12.34a2.61,2.61,0,0,0-.62.94,2.76,2.76,0,0,0-.22,1.09v17.32H138.22v-26Zm-34.47,86.35h31.59v31.64H120.88Zm37.36,31.64V254.67h31.59v31.64Zm37.42-31.64h31.6v31.64h-31.6Z"></path></svg>