<svg xmlns="http://www.w3.org/2000/svg" xmlns:xlink="http://www.w3.org/1999/xlink" id="Livello_1" x="0px" y="0px" viewBox="0 0 400 400" style="enable-background:new 0 0 400 400;" xml:space="preserve"><style type="text/css"></style>
<g> <path class="st0" d="M393.8,264.8l-9.8-23.5v-0.2l-18.3-43.7L291.3,17.6c-1-2.3-4-8.1-11-11c-7.1-2.9-13.3-1-15.6,0L17.1,109.3   c-10.4,4.4-15.2,16.2-11,26.6l102.7,247.3c3.3,7.9,10.8,12.5,18.9,12.5c2.5,0,5.2-0.4,7.9-1.7L383,291.7   C393.2,287.3,398.2,275.2,393.8,264.8z M379.6,284L132.4,386.5c-6.2,2.5-13.3-0.4-15.8-6.4L13.8,132.8c-2.5-6.2,0.4-13.3,6.4-15.8   L267.8,14.2c0.6-0.2,2.5-0.8,4.6-0.8c1.2,0,2.9,0.2,4.6,0.8c4.2,1.7,6,5.4,6.4,6.4L358,200.6l17.3,41.2v0.2l10.8,25.8   C388.8,274.4,385.9,281.5,379.6,284z"></path> <path class="st0" d="M323.9,181c-5.2,0-9.8,3.7-10.6,8.7h-19.5l-7.7,15h-24.5c0-1.5,0.2-2.9,0.2-4.4c0-2.9-0.2-5.6-0.6-8.3h7.9   l13.3-23.1H296c1,5,5.4,8.5,10.6,8.5c6,0,10.8-4.8,10.8-10.8s-4.8-10.8-10.8-10.8c-5.4,0-10,4-10.8,9.2H280l-13.3,23.1h-18.3   c-3.3-2.7-5.4-6.9-5.4-11.6c0-5.2,2.7-10,6.9-12.5c-3.5-4.8-7.7-9.2-12.5-12.7l1.5-5.2l17.3-4.6l3.3-12.7c5.2,0.4,10-2.9,11.4-8.1   c1.5-5.8-2.1-11.9-7.7-13.3c-5.8-1.5-11.9,2.1-13.3,7.7c-1.2,5.2,1.2,10.4,5.8,12.5l-2.7,10.6l-17.3,4.6l-3.1,12.1   c-2.3,1.7-5.2,2.5-8.3,2.5c-2.1,0-4.2-0.4-6-1.2l9.8-37.2l-12.7-11.2l4.4-16.4c5.2,0.4,10.2-2.9,11.4-8.1   c1.5-5.8-2.1-11.9-7.7-13.3c-5.8-1.5-11.9,2.1-13.3,7.7c-1.2,5,1.2,10.4,5.8,12.5l-5,18.9l12.5,11.2l-8.9,33.9   c-3.3-2.7-5.4-6.9-5.4-11.4c0-1,0.2-2.1,0.4-3.1c-1.5-0.2-2.9-0.4-4.4-0.4l1.5-5.4l-18.9-18.7l3.5-13.1c5,0.2,9.8-3.1,11-8.1   c1.5-5.8-1.9-11.9-7.7-13.3c-5.8-1.5-11.9,2.1-13.3,7.7c-1.5,5.2,1.5,10.6,6.2,12.7l-4.2,15.4l18.9,18.7l-1,4c-0.4,0-0.6,0-1,0   c-3.1,0-6.2,0.2-9.4,0.6c0.2,1,0.4,2.1,0.4,3.1c0,8.3-6.7,15-15,15c-5.2,0-10-2.7-12.5-6.9c-5.2,3.7-9.6,8.3-13.3,13.3   c4.2,2.7,6.9,7.3,6.9,12.5c0,4.6-2.1,8.7-5.4,11.6h-18.3L119.9,165h-15.8c-0.8-5.2-5.2-9.2-10.8-9.2c-6,0-10.8,4.8-10.8,10.8   s4.8,10.8,10.8,10.8c5.2,0,9.6-3.7,10.6-8.5h13.5l13.5,23.1h7.9c-0.4,2.7-0.6,5.6-0.6,8.3c0,1.5,0,2.9,0.2,4.4h-24.5l-7.7-15H86.6   c-1-5-5.4-8.7-10.6-8.7c-6,0-10.8,4.8-10.8,10.8c0,6,5,10.8,10.8,10.8c5.4,0,9.8-4,10.6-8.9h17.1l7.7,15h27.5c0,0.4,0,0.6,0.2,1   c1-0.2,2.1-0.4,3.1-0.4c7.5,0,13.7,5.6,14.8,12.7h-24.3l-8.9,15.6h-10.8c-1-5-5.4-8.7-10.6-8.7c-6,0-10.8,4.8-10.8,10.8   s4.8,10.8,10.8,10.8c5.4,0,9.8-4,10.6-8.9h13.1l8.9-15.6h22c-0.6,4.6-3.1,8.3-6.7,10.8c3.7,5.2,8.3,9.6,13.3,13.3   c2.3-3.5,5.8-6,10.2-6.7l-5.4,20.4l-25.6,7.3l-4,15.4c-5.2-0.4-10.2,2.9-11.6,8.1c-1.5,5.8,1.9,11.9,7.7,13.3   c5.8,1.5,11.9-2.1,13.3-7.7c1.2-5-1.2-10.2-5.6-12.5l3.5-13.1l25.6-7.1l6.2-23.9c4.8,0.6,8.9,3.5,11.2,7.5l-9.4,36l-16.4,3.5   l-5,18.7c-5-0.2-9.8,3.1-11.2,8.1c-1.5,5.8,1.9,11.9,7.7,13.3c5.8,1.5,11.9-2.1,13.3-7.7c1.5-5.2-1.2-10.4-6-12.7l4.4-16.4   l16.4-3.5l7.9-30.4c0,0.4-0.2,1-0.2,1.5c3.1,0.4,6.2,0.6,9.4,0.6c1.5,0,2.9,0,4.2-0.2l-2.9,11.2l12.9,12.5l-2.7,10.4   c-5-0.2-9.8,2.9-11.2,8.1c-1.5,5.8,2.1,11.9,7.7,13.3c5.6,1.5,11.9-2.1,13.3-7.7c1.5-5.2-1.2-10.4-6-12.7l3.3-12.7l-12.9-12.5   l2.7-10.4c0.2,0,0.6,0,0.8-0.2c-0.2-0.8-0.2-1.5-0.2-2.3l2.3-8.9c2.7-4.2,7.3-6.9,12.5-6.9s10,2.7,12.5,6.9   c5.2-3.7,9.6-8.3,13.3-13.3c-3.5-2.3-6.2-6.2-6.7-10.8h22l8.9,15.6h13.1c0.8,5.2,5.4,8.9,10.6,8.9c6,0,10.8-4.8,10.8-10.8   c0-6-4.8-10.8-10.8-10.8c-5.2,0-9.8,3.7-10.6,8.7h-10.8l-8.9-15.6h-24.3c1-7.3,7.3-12.7,14.8-12.7c1,0,2.1,0.2,3.1,0.4   c0-0.4,0-0.6,0.2-1h27.5l7.7-15h17.1c0.8,5.2,5.4,8.9,10.6,8.9c6,0,10.8-4.8,10.8-10.8C334.9,186,329.9,181,323.9,181z    M306.6,159.8c3.7,0,6.9,3.1,6.9,6.9c0,3.7-3.1,6.9-6.9,6.9c-3.7,0-6.9-3.1-6.9-6.9C299.8,162.9,302.9,159.8,306.6,159.8z    M253.4,116.1c1-3.7,4.8-5.8,8.3-5c3.7,1,5.8,4.8,5,8.3c-1,3.7-4.8,5.8-8.3,5C254.7,123.6,252.6,119.9,253.4,116.1z M213.7,78.7   c1-3.7,4.8-5.8,8.3-5c3.7,1,5.8,4.8,5,8.3c-1,3.7-4.8,5.8-8.3,5C214.9,86.2,212.8,82.5,213.7,78.7z M185,89.1c1-3.7,4.8-5.8,8.3-5   c3.7,1,5.8,4.8,5,8.3c-1,3.7-4.8,5.8-8.3,5C186.2,96.6,183.9,92.9,185,89.1z M93.3,173.8c-3.7,0-6.9-3.1-6.9-6.9   c0-3.7,3.1-6.9,6.9-6.9c3.7,0,6.9,3.1,6.9,6.9C100.3,170.6,97.2,173.8,93.3,173.8z M76,198.9c-3.7,0-6.9-3.1-6.9-6.9   s3.1-6.9,6.9-6.9c3.7,0,6.9,3.1,6.9,6.9C83.1,195.8,80,198.9,76,198.9z M102.2,246.8c-3.7,0-6.9-3.1-6.9-6.9c0-3.7,3.1-6.9,6.9-6.9   s6.9,3.1,6.9,6.9C109.1,243.6,106,246.8,102.2,246.8z M144.4,299.2c-1,3.7-4.8,5.8-8.3,5c-3.7-1-5.8-4.8-5-8.3c1-3.7,4.8-5.8,8.3-5   C143.2,291.7,145.3,295.4,144.4,299.2z M164.4,322c-1,3.7-4.8,5.8-8.3,5c-3.7-1-5.8-4.8-5-8.5c1-3.7,4.8-5.8,8.3-5   C163.1,314.8,165.4,318.5,164.4,322z M217.4,308.9c-1,3.7-4.8,5.8-8.5,5c-3.7-1-5.8-4.8-5-8.3c1-3.7,4.8-5.8,8.5-5   C216.2,301.7,218.3,305.4,217.4,308.9z M297.9,233c3.7,0,6.9,3.1,6.9,6.9c0,3.7-3.1,6.9-6.9,6.9s-6.9-3.1-6.9-6.9   C291,236.1,294.2,233,297.9,233z M200,237.6c-20.4,0-37-16.6-37-37s16.6-37,37-37s37,16.6,37,37c0,7.1-1.9,13.5-5.2,19.1   l-16.4-16.4c1.7-3.7,2.3-7.9,1.5-12.3c-1.5-8.9-8.5-16.4-17.5-18.3c-4-0.8-7.5-0.4-10.8,0.4c-1.2,0.4-1.7,2.1-0.6,3.1l11.6,11.6   l-1.7,9.6l-9.6,1.2l-11.6-11.6c-1-1-2.7-0.6-3.1,0.8c-1,3.3-1.2,7.1-0.6,10.8c1.9,8.9,9.2,16.2,18.3,17.5c4.4,0.6,8.5,0,12.1-1.5   l16.8,16.8C214.3,235.3,207.4,237.6,200,237.6z M323.9,198.9c-3.7,0-6.9-3.1-6.9-6.9s3.1-6.9,6.9-6.9s6.9,3.1,6.9,6.9   C331,195.8,327.9,198.9,323.9,198.9z"></path></g></svg>