<svg xmlns="http://www.w3.org/2000/svg" id="Livello_1" data-name="Livello 1" viewBox="0 0 400 400"><defs><style></style></defs><path class="cls-1" d="M202.94,299.27a2,2,0,0,1-.8-.16l-82.41-34.47a2.09,2.09,0,0,1-1.27-1.92V218.15a2.07,2.07,0,0,1,2.94-1.89L177,241.62l24.22-33.11a2.08,2.08,0,0,1,3.76,1.23v87.45a2.06,2.06,0,0,1-.92,1.73A2,2,0,0,1,202.94,299.27Zm-80.32-37.94,78.24,32.74v-78L179.4,245.45a2.1,2.1,0,0,1-2.55.66l-54.23-24.72Z"></path><path class="cls-1" d="M202.94,299.27a2.07,2.07,0,0,1-2.08-2.08V209.74a2.08,2.08,0,0,1,3.8-1.17l22.41,33,51.48-25.27a2.08,2.08,0,0,1,3,1.87v44.57a2.06,2.06,0,0,1-1.23,1.89L203.8,299.09A2.18,2.18,0,0,1,202.94,299.27ZM205,216.51V294l72.36-32.6V221.49l-50.1,24.59a2.07,2.07,0,0,1-2.63-.69Z"></path><path class="cls-1" d="M177.72,246.3a2.08,2.08,0,0,1-.88-.19l-79-36.44a2.08,2.08,0,0,1-.72-3.23l26.07-31.11a2.07,2.07,0,0,1,2.4-.58l78.2,33.07a2.08,2.08,0,0,1,1.2,1.37,2.06,2.06,0,0,1-.33,1.78L179.4,245.45A2.1,2.1,0,0,1,177.72,246.3ZM102,207l75,34.58,22.67-31-74.36-31.45Z"></path><path class="cls-1" d="M226.75,244.62a2.1,2.1,0,0,1-1.69-.86l-23.8-32.91a2.08,2.08,0,0,1,.86-3.13l73.79-31.57a2.09,2.09,0,0,1,2.42.59l24.6,29.69a2.1,2.1,0,0,1,.43,1.79,2.13,2.13,0,0,1-1.15,1.43l-74.58,34.77A2.16,2.16,0,0,1,226.75,244.62Zm-20.6-34.1,21.28,29.4L298,207l-21.88-26.42Z"></path><path class="cls-1" d="M124.74,178.75a2.08,2.08,0,0,1-.6-4.08L146.28,168a2.08,2.08,0,1,1,1.21,4l-22.14,6.73A2.2,2.2,0,0,1,124.74,178.75Z"></path><path class="cls-1" d="M276.73,180.15a2.27,2.27,0,0,1-.62-.09l-21.68-6.73a2.08,2.08,0,0,1,1.23-4l21.69,6.73a2.08,2.08,0,0,1-.62,4.07Z"></path><path class="cls-1" d="M157.57,174.34a1,1,0,0,1-1-1V148.64a1,1,0,0,1,2.09,0V173.3A1,1,0,0,1,157.57,174.34Z"></path><path class="cls-1" d="M174.91,184.3a1,1,0,0,1-1-1V143a1,1,0,0,1,2.09,0v40.25A1,1,0,0,1,174.91,184.3Z"></path><path class="cls-1" d="M192.22,168.61a1,1,0,0,1-1-1V128.43a1,1,0,1,1,2.08,0v39.14A1,1,0,0,1,192.22,168.61Z"></path><path class="cls-1" d="M226.84,173.37a1,1,0,0,1-1-1v-55a1,1,0,1,1,2.08,0v55A1,1,0,0,1,226.84,173.37Z"></path><path class="cls-1" d="M209.53,194a1,1,0,0,1-1-1V134.11a1,1,0,1,1,2.08,0v58.82A1,1,0,0,1,209.53,194Z"></path><path class="cls-1" d="M244.15,174.34a1,1,0,0,1-1-1V148.64a1,1,0,0,1,2.08,0V173.3A1,1,0,0,1,244.15,174.34Z"></path><path class="cls-1" d="M157.57,143.09a4.83,4.83,0,1,1,4.82-4.82A4.83,4.83,0,0,1,157.57,143.09Zm0-7.57a2.75,2.75,0,1,0,2.74,2.75A2.75,2.75,0,0,0,157.57,135.52Z"></path><path class="cls-1" d="M209.53,128a4.83,4.83,0,1,1,4.83-4.83A4.83,4.83,0,0,1,209.53,128Zm0-7.57a2.74,2.74,0,1,0,2.74,2.74A2.74,2.74,0,0,0,209.53,120.39Z"></path><circle class="cls-1" cx="209.53" cy="106.59" r="3.78"></circle><circle class="cls-1" cx="244.15" cy="134.48" r="3.78"></circle><path class="cls-1" d="M174.91,120.11a4.83,4.83,0,1,1,4.83-4.83A4.83,4.83,0,0,1,174.91,120.11Zm0-7.57a2.74,2.74,0,1,0,2.75,2.74A2.74,2.74,0,0,0,174.91,112.54Z"></path><circle class="cls-1" cx="174.91" cy="132.66" r="3.78"></circle><path class="cls-2" d="M127.81,395a20.44,20.44,0,0,1-7.77-1.55,20.23,20.23,0,0,1-11-11L6.56,135.6a20.35,20.35,0,0,1,11-26.59L264.39,6.55a20.35,20.35,0,0,1,26.59,11l74.54,179.59,18.24,43.6-.05.22,9.73,23.43a20.33,20.33,0,0,1-11,26.58L135.61,393.42A20.23,20.23,0,0,1,127.81,395ZM272.26,13.35a12.81,12.81,0,0,0-4.68.89L20.74,116.71a12,12,0,0,0-6.48,15.69L116.72,379.24a12,12,0,0,0,15.69,6.49L379.26,283.27a12,12,0,0,0,6.49-15.7L375,241.76l.05-.21-17.24-41.22L283.28,20.73a12.26,12.26,0,0,0-6.5-6.49A11.69,11.69,0,0,0,272.26,13.35Z"></path></svg>