<svg xmlns="http://www.w3.org/2000/svg" xmlns:xlink="http://www.w3.org/1999/xlink" id="Livello_1" x="0px" y="0px" viewBox="0 0 400 400" style="enable-background:new 0 0 400 400;" xml:space="preserve"><style type="text/css"></style>
<g> <path class="st0" d="M393.5,264.4l-9.7-23.4v-0.2l-18.2-43.6L291,17.5c-4.3-10.4-16.2-15.3-26.6-11L17.5,109   c-10.4,4.3-15.3,16.2-11,26.6L109,382.5c3.2,7.6,10.6,12.5,18.8,12.5c2.7,0,5.3-0.5,7.8-1.6L382.5,291   C392.9,286.7,397.8,274.8,393.5,264.4z M379.3,283.3L132.4,385.7c0,0,0,0,0,0c-6.1,2.5-13.1-0.4-15.7-6.5L14.2,132.4c0,0,0,0,0,0   c-2.5-6.1,0.4-13.1,6.5-15.7L267.6,14.2c1.5-0.6,3.1-0.9,4.7-0.9c1.5,0,3.1,0.3,4.5,0.9c2.9,1.2,5.3,3.6,6.5,6.5l74.5,179.6   l17.2,41.2v0.2l10.8,25.8c0,0,0,0,0,0C388.3,273.7,385.4,280.7,379.3,283.3z"></path> <path class="st0" d="M199.5,155.9h16c0.3,0,0.5-0.1,0.7-0.3l11.8-11.8c0.2-0.2,0.3-0.4,0.3-0.7v-24.5c3.8-0.5,6.7-3.7,6.7-7.6   c0-4.3-3.4-7.7-7.7-7.7c-4.3,0-7.7,3.4-7.7,7.7c0,3.9,2.9,7.1,6.7,7.6v24.1l-11.2,11.2h-15.6c-0.6,0-1,0.4-1,1   S199,155.9,199.5,155.9z"></path> <path class="st0" d="M226.8,280.4v-24.5c0-0.3-0.1-0.5-0.3-0.7l-11.8-11.8c-0.2-0.2-0.5-0.3-0.7-0.3h-15.9v-63.9   c0.3,0.4,0.8,0.6,1.4,0.7h27.8c0.6,0,1.1-0.2,1.5-0.6l14.1-14h19.9c1,6.4,6.6,11.3,13.3,11.3c7.5,0,13.5-6.1,13.5-13.5   c0-7.4-6-13.5-13.5-13.5c-6.8,0-12.3,5-13.3,11.5H242c-0.5,0-1.1,0.2-1.5,0.6l-14.1,14.1h-26.9c-0.6,0-1,0.3-1.4,0.7v-57.9   c0,0,0-0.1,0-0.1c0-0.1,0-0.2,0-0.2c0,0,0-0.1,0-0.1c0-0.1,0-0.1-0.1-0.2c-6.5-8.9-16.9-14.3-27.9-14.3c0,0,0,0,0,0   c-19,0-34.4,15.4-34.4,34.4c0,1.6,0.1,3.1,0.3,4.7c-8.6,2.3-15.8,8.1-19.8,16.2c-3.6,7.3-4.1,15.7-1.5,23.4   c2.5,7.2,7.4,13.1,14,16.8c-6.5,4.5-11.1,11.1-13.1,18.8c-2.2,8.5-1,17.4,3.5,24.9c4.3,7.3,11.1,12.5,19.1,14.9   c-3.5,14.9,3.9,30,18.1,36.3c4.1,1.8,8.5,2.7,12.7,2.7c11.8,0,23.1-6.6,28.5-17.8c0.4-0.2,0.6-0.5,0.6-0.9v-32.5h15.5l11.2,11.2v24   c-3.8,0.5-6.7,3.7-6.7,7.6c0,4.3,3.4,7.7,7.7,7.7c4.3,0,7.7-3.4,7.7-7.7C233.5,284.1,230.6,280.9,226.8,280.4z M276.1,153.7   C276.1,153.7,276.1,153.7,276.1,153.7c5.2,0,9.3,4.2,9.3,9.3c0,0,0,0,0,0c0,5.1-4.2,9.3-9.3,9.3s-9.3-4.2-9.3-9.3   C266.8,157.9,271,153.7,276.1,153.7z M157.1,291.9c-13.2-5.8-20.2-20-16.9-33.9c2.4,0.5,4.8,0.8,7.3,0.8c0,0,0,0,0,0   c9,0,17.6-3.7,23.8-10.2c0.4-0.4,0.4-1,0-1.4c-0.4-0.4-1-0.4-1.4,0c-5.8,6.1-14,9.6-22.4,9.6c-2.6,0-5.2-0.3-7.7-1c0,0,0,0,0,0   c0,0,0,0,0,0c-16.5-4.3-26.4-21.1-22.1-37.6c2-7.6,6.6-14,13.2-18.2c1.9,0.9,3.9,1.6,6,2.1c2.3,0.5,4.6,0.8,6.9,0.8   c0,0,0.1,0,0.1,0c4.9,0,9.7-1.2,14.1-3.5c1-0.5,2-1.1,3-1.8c0.5-0.3,0.6-0.9,0.3-1.4c-0.3-0.5-0.9-0.6-1.4-0.3   c-1,0.6-1.9,1.2-2.8,1.7c-4,2.1-8.6,3.2-13.1,3.2c0,0-0.1,0-0.1,0c-2.2,0-4.3-0.3-6.5-0.8c-2-0.4-4-1.2-5.9-2.1   c-0.1-0.1-0.2-0.1-0.2-0.1c-6.8-3.4-12-9.2-14.4-16.4c-2.5-7.2-2-15,1.4-21.9c3.7-7.5,10.3-12.9,18.3-15.1   c3.2,16.2,17.2,27.8,33.8,27.8c0.1,0,0.2,0,0.3,0c0.8,0,1.7,0,2.5-0.1h0.5c0.6,0,1-0.4,1-1s-0.4-1-1-1h-0.5c0,0-0.1,0-0.1,0   c-0.8,0.1-1.5,0.1-2.3,0.1c-0.1,0-0.2,0-0.3,0c-16,0-29.4-11.5-32-27.2c-0.3-1.7-0.4-3.5-0.4-5.2c0-17.9,14.6-32.4,32.4-32.4   c0,0,0,0,0,0c10.3,0,20,4.9,26.1,13.2v158.2C189.5,291.7,172,298.5,157.1,291.9z"></path> <path class="st0" d="M276.7,224.5c-6.7,0-12.3,4.9-13.3,11.4h-19.9l-14.1-14.1c-0.4-0.4-0.9-0.6-1.5-0.6h-27.8   c-1,0.1-1.9,0.9-1.9,1.9c-0.1,1.2,0.8,2.1,1.9,2.2H227l14.1,14.1c0.4,0.4,0.9,0.6,1.5,0.6h20.8c1,6.5,6.6,11.4,13.3,11.4   c7.4,0,13.5-6,13.5-13.5C290.2,230.6,284.1,224.5,276.7,224.5z M286,238c0,5.1-4.2,9.3-9.3,9.3c-5.1,0-9.2-4.1-9.3-9.2   c0,0,0-0.1,0-0.1c0,0,0-0.1,0-0.1c0.1-5.1,4.2-9.2,9.3-9.2C281.8,228.7,286,232.9,286,238C286,238,286,238,286,238z"></path> <path class="st0" d="M247.6,199.5C247.6,199.5,247.5,199.5,247.6,199.5l-48.1,0c-0.6,0-1,0.5-1,1c0,0.6,0.5,1,1,1h48c0,0,0,0,0.1,0   c0.5,3.9,3.9,7,7.9,7c4.4,0,8-3.6,8-8s-3.6-8-8-8C251.4,192.5,248.1,195.6,247.6,199.5z"></path></g></svg>