<svg xmlns="http://www.w3.org/2000/svg" id="Livello_1" data-name="Livello 1" viewBox="0 0 400 400"><defs><style></style></defs><path class="cls-1" d="M127.84,395A20.37,20.37,0,0,1,109,382.45L6.57,135.6a20.32,20.32,0,0,1,11-26.58L264.4,6.55a20.33,20.33,0,0,1,26.58,11h0l74.55,179.6,18.25,43.61,0,.23,9.72,23.41a20.36,20.36,0,0,1-11,26.58L135.61,393.43A20.15,20.15,0,0,1,127.84,395ZM272.27,13.35a12.81,12.81,0,0,0-4.68.89L20.75,116.71a12,12,0,0,0-6.49,15.7L116.72,379.25a12,12,0,0,0,15.7,6.49L379.27,283.28a12,12,0,0,0,6.49-15.7L375,241.75l.05-.21-17.23-41.2L283.29,20.73a12.3,12.3,0,0,0-6.5-6.49A11.69,11.69,0,0,0,272.27,13.35Z"></path><path class="cls-2" d="M200.25,278.11l-43.06-32.43a53.89,53.89,0,0,1-21.36-42.82V143.2l47.62-21.92a39.9,39.9,0,0,1,33.55.07L264,143.21V203a54,54,0,0,1-21.16,42.7Zm-58.77-131.3v56.05a48.22,48.22,0,0,0,19.11,38.32L200.23,271l39.15-29.82A48.31,48.31,0,0,0,258.31,203V146.81l-43.69-20.34a34.22,34.22,0,0,0-28.81-.06Z"></path><path class="cls-2" d="M200.31,293.24,149.67,255.1a63.26,63.26,0,0,1-25.08-50.29V134.55l56-25.8a46.72,46.72,0,0,1,39.29.08l55.26,25.73V205a63.4,63.4,0,0,1-24.84,50.14Zm-70-155v66.58a57.5,57.5,0,0,0,22.79,45.7L200.29,286l46.58-35.48A57.6,57.6,0,0,0,269.45,205V138.22L217.51,114A41,41,0,0,0,183,114Z"></path><path class="cls-2" d="M98,151.94a9.41,9.41,0,1,1,9.41-9.41A9.42,9.42,0,0,1,98,151.94Zm0-15.54a6.13,6.13,0,1,0,6.13,6.13A6.13,6.13,0,0,0,98,136.4Z"></path><rect class="cls-2" x="105.74" y="140.88" width="22" height="3.28"></rect><path class="cls-2" d="M246,106.84a9.41,9.41,0,1,1,9.41-9.41A9.42,9.42,0,0,1,246,106.84Zm0-15.54a6.13,6.13,0,1,0,6.13,6.13A6.13,6.13,0,0,0,246,91.3Z"></path><rect class="cls-2" x="244.34" y="105.2" width="3.28" height="19.13"></rect><path class="cls-2" d="M175.07,312a9.41,9.41,0,1,1,9.41-9.41A9.42,9.42,0,0,1,175.07,312Zm0-15.54a6.13,6.13,0,1,0,6.12,6.13A6.14,6.14,0,0,0,175.07,296.45Z"></path><rect class="cls-2" x="173.42" y="269.94" width="3.28" height="24.88"></rect><path class="cls-2" d="M302,201.87a9.41,9.41,0,1,1,9.41-9.41A9.42,9.42,0,0,1,302,201.87Zm0-15.54a6.13,6.13,0,1,0,6.13,6.13A6.14,6.14,0,0,0,302,186.33Z"></path><rect class="cls-2" x="272.27" y="190.81" width="22" height="3.28"></rect><path class="cls-2" d="M291.43,232.44a9.41,9.41,0,1,1,9.41-9.41A9.42,9.42,0,0,1,291.43,232.44Zm0-15.54a6.13,6.13,0,1,0,6.12,6.13A6.14,6.14,0,0,0,291.43,216.9Z"></path><rect class="cls-2" x="270.27" y="221.39" width="13.39" height="3.28"></rect><path class="cls-2" d="M109.29,181.67a9.41,9.41,0,1,1,9.41-9.41A9.42,9.42,0,0,1,109.29,181.67Zm0-15.54a6.13,6.13,0,1,0,6.13,6.13A6.14,6.14,0,0,0,109.29,166.13Z"></path><rect class="cls-2" x="117.06" y="170.62" width="10.51" height="3.28"></rect><path class="cls-2" d="M199.8,206.68a8.7,8.7,0,1,1,8.7-8.7A8.71,8.71,0,0,1,199.8,206.68Zm0-12.43a3.73,3.73,0,1,0,3.73,3.73A3.73,3.73,0,0,0,199.8,194.25Z"></path><rect class="cls-2" x="197.31" y="205.35" width="4.98" height="7.96"></rect><path class="cls-2" d="M219.69,223.62h-39.6a6.87,6.87,0,0,1-6.86-6.87V188.54a6.87,6.87,0,0,1,6.86-6.87h39.6a6.88,6.88,0,0,1,6.87,6.87v28.21A6.88,6.88,0,0,1,219.69,223.62Zm-39.6-37a1.89,1.89,0,0,0-1.89,1.89v28.21a1.89,1.89,0,0,0,1.89,1.89h39.6a1.89,1.89,0,0,0,1.89-1.89V188.54a1.89,1.89,0,0,0-1.89-1.89Z"></path><path class="cls-2" d="M217.82,183.08h-5v-8.34a13,13,0,1,0-26.1,0h-5a18,18,0,0,1,36.06,0Z"></path><rect class="cls-2" x="181.74" y="174.54" width="4.98" height="8.9"></rect></svg>