<svg xmlns="http://www.w3.org/2000/svg" xmlns:xlink="http://www.w3.org/1999/xlink" id="Livello_1" x="0px" y="0px" viewBox="0 0 400 400" style="enable-background:new 0 0 400 400;" xml:space="preserve"><style type="text/css"></style>
<path class="st0" d="M129.2,217.5L103,230.6l95.7,46.8l98.3-48.9l-26.4-12.9l6.5-4.2l34.9,17.1l-113.3,56.4L88,230.6l34.1-17  L129.2,217.5"></path><path class="st0" d="M277,181.7l35,17.2l-113.3,56.4L88,201.1l36.1-18l5.2,4.8L103,201.1l95.7,46.8L297,199l-26.1-12.8L277,181.7z"></path><path class="st0" d="M198.7,225.8L88,171.6l113.4-56.4L312,169.4L198.7,225.8z"></path><path class="st1" d="M127.8,395c-8.2,0-15.7-5-18.8-12.6L6.6,135.6c-4.3-10.4,0.6-22.3,11-26.6L264.4,6.6c10.4-4.3,22.3,0.6,26.6,11  c0,0,0,0,0,0l0,0l74.5,179.6l18.2,43.6v0.2l9.7,23.4c4.3,10.4-0.6,22.3-11,26.6c0,0,0,0,0,0L135.6,393.4  C133.1,394.5,130.5,395,127.8,395z M272.3,13.4c-1.6,0-3.2,0.3-4.7,0.9L20.7,116.7c-6.1,2.5-9,9.6-6.5,15.7c0,0,0,0,0,0l102.5,246.8  c2.5,6.1,9.6,9,15.7,6.5c0,0,0,0,0,0l246.9-102.5c6.1-2.5,9-9.6,6.5-15.7c0,0,0,0,0,0L375,241.7l0-0.2l-17.2-41.2L283.3,20.7  c-1.3-2.9-3.6-5.2-6.5-6.5C275.3,13.6,273.8,13.3,272.3,13.4z"></path></svg>