<svg xmlns="http://www.w3.org/2000/svg" xmlns:xlink="http://www.w3.org/1999/xlink" id="Livello_1" data-name="Livello 1" viewBox="0 0 400 400"><defs><style></style>
<clipPath id="clip-path"><circle class="cls-1" cx="199.46" cy="200.9" r="50.75"></circle></clipPath></defs><circle class="cls-2" cx="198.91" cy="113.21" r="15.58"></circle><circle class="cls-2" cx="281.26" cy="157.09" r="15.58"></circle><circle class="cls-2" cx="118.74" cy="157.09" r="15.58"></circle><circle class="cls-2" cx="281.26" cy="246.23" r="15.58"></circle><circle class="cls-2" cx="118.74" cy="246.23" r="15.58"></circle><circle class="cls-2" cx="198.68" cy="286.8" r="15.58"></circle><path class="cls-2" d="M264.54,147.76a2.61,2.61,0,0,1-1.34-.37l-45.4-26.75a2.64,2.64,0,1,1,2.68-4.55l45.4,26.75a2.64,2.64,0,0,1-1.34,4.92Z"></path><path class="cls-2" d="M281.14,229.33h0a2.63,2.63,0,0,1-2.63-2.65l.24-50.06a2.64,2.64,0,0,1,2.64-2.63h0a2.65,2.65,0,0,1,2.63,2.66l-.24,50A2.64,2.64,0,0,1,281.14,229.33Z"></path><path class="cls-2" d="M118.62,229.33h0a2.64,2.64,0,0,1-2.63-2.65l.24-50.06a2.65,2.65,0,0,1,2.64-2.63h0a2.65,2.65,0,0,1,2.63,2.66l-.24,50A2.63,2.63,0,0,1,118.62,229.33Z"></path><path class="cls-2" d="M133.28,147a2.64,2.64,0,0,1-1.34-4.92l45.4-26.75a2.64,2.64,0,1,1,2.68,4.55l-45.4,26.76A2.7,2.7,0,0,1,133.28,147Z"></path><path class="cls-2" d="M217.76,285.89a2.64,2.64,0,0,1-1.35-4.92l45.41-26.75a2.64,2.64,0,1,1,2.68,4.55l-45.4,26.75A2.66,2.66,0,0,1,217.76,285.89Z"></path><path class="cls-2" d="M179.6,285.89a2.61,2.61,0,0,1-1.34-.37l-45.4-26.75a2.64,2.64,0,1,1,2.68-4.55L180.94,281a2.64,2.64,0,0,1-1.34,4.92Z"></path><path class="cls-2" d="M199.46,253.63a52.73,52.73,0,1,1,52.73-52.73A52.78,52.78,0,0,1,199.46,253.63Zm0-101.5a48.77,48.77,0,1,0,48.77,48.77A48.83,48.83,0,0,0,199.46,152.13Z"></path><path class="cls-2" d="M199.46,149.94a2,2,0,0,1-2-2V132.72a2,2,0,0,1,4,0V148A2,2,0,0,1,199.46,149.94Z"></path><path class="cls-2" d="M199.46,269.87a2,2,0,0,1-2-2V252.65a2,2,0,1,1,4,0v15.24A2,2,0,0,1,199.46,269.87Z"></path><path class="cls-2" d="M154.1,176.15a2,2,0,0,1-1-.25l-17.51-9.75a2,2,0,1,1,1.92-3.46l17.52,9.75a2,2,0,0,1-1,3.71Z"></path><path class="cls-2" d="M264.54,238.56a2,2,0,0,1-.91-.22L243.91,228.2a2,2,0,1,1,1.81-3.52l19.72,10.14a2,2,0,0,1-.9,3.74Z"></path><path class="cls-2" d="M135.1,238.56a2,2,0,0,1-1-3.69L152.69,224a2,2,0,1,1,2,3.42L136.1,238.29A2,2,0,0,1,135.1,238.56Z"></path><path class="cls-2" d="M245.23,176.89a2,2,0,0,1-.92-3.74l18.34-9.61a2,2,0,0,1,1.84,3.51l-18.34,9.61A1.88,1.88,0,0,1,245.23,176.89Z"></path><g class="cls-3"><path class="cls-2" d="M199.25,207A16.73,16.73,0,1,1,216,190.32,16.75,16.75,0,0,1,199.25,207Zm0-29.49A12.77,12.77,0,1,0,212,190.32,12.78,12.78,0,0,0,199.25,177.55Z"></path><path class="cls-2" d="M199.64,290a38.73,38.73,0,1,1,38.73-38.73A38.77,38.77,0,0,1,199.64,290Zm0-73.49a34.77,34.77,0,1,0,34.77,34.76A34.8,34.8,0,0,0,199.64,216.47Z"></path></g><path class="cls-4" d="M127.84,395A20.38,20.38,0,0,1,109,382.44L6.57,135.6a20.33,20.33,0,0,1,11-26.58L264.39,6.56a20.34,20.34,0,0,1,26.58,11h0l74.54,179.59,18.25,43.61,0,.23,9.72,23.41a20.34,20.34,0,0,1-11,26.58L135.61,393.43A20.32,20.32,0,0,1,127.84,395ZM272.26,13.35a12.54,12.54,0,0,0-4.68.9L20.75,116.71a12,12,0,0,0-6.49,15.7L116.72,379.25a12,12,0,0,0,15.69,6.49L379.26,283.28a12,12,0,0,0,6.49-15.7L375,241.75l.05-.21-17.23-41.2L283.29,20.74a12.38,12.38,0,0,0-6.51-6.5A11.87,11.87,0,0,0,272.26,13.35Z"></path></svg>