<svg xmlns="http://www.w3.org/2000/svg" xmlns:xlink="http://www.w3.org/1999/xlink" id="Layer_1" x="0px" y="0px" viewBox="0 0 425.2 425.2" style="enable-background:new 0 0 425.2 425.2;" xml:space="preserve"><style type="text/css"></style>
<g> <path class="st0" d="M321.8,161.1L321.8,161.1C321.8,161.1,321.7,161,321.8,161.1c-12-25.4-32.6-45.9-58-57.8l0.2-0.1  c-1.2-2.2-2.5-4.4-3.8-6.5l-2.1,1.3c0.8,1.2,1.5,2.5,2.2,3.8c-14.6-6.3-30.8-9.8-47.7-9.8c-18.5,0-36,4.2-51.6,11.6l-0.4-0.2  c-0.1,0.2-0.2,0.3-0.3,0.5c-25,12.1-45.2,32.5-57,57.6l-0.1-0.2c-2.3,1.2-4.5,2.5-6.5,3.8l1.3,2.1c1.2-0.8,2.5-1.5,3.8-2.2  c-6.3,14.6-9.8,30.8-9.8,47.7c0,18.5,4.2,36,11.6,51.7l-0.2,0.4c0.2,0.1,0.3,0.2,0.5,0.3c12,25,32.4,45.2,57.5,57l-0.6,0.3  c1.2,2.3,2.5,4.5,3.8,6.6l2.1-1.3c-0.8-1.4-1.7-2.8-2.5-4.3c14.9,6.5,31.3,10.2,48.5,10.2c18.4,0,35.9-4.2,51.5-11.6l0,0  c0,0,0,0,0,0c25.3-12,45.8-32.5,57.7-57.9l0.3,0.6c2.3-1.2,4.5-2.5,6.6-3.8l-1.3-2.1c-1.4,0.9-2.8,1.7-4.3,2.5  c6.5-14.9,10.2-31.3,10.2-48.5C333.3,194.2,329.2,176.7,321.8,161.1z M212.6,326c-19.5,0-37.9-5-53.9-13.7c-0.7-1.5-1.4-3.1-2-4.7  l-2.3,0.9c0.2,0.6,0.5,1.1,0.7,1.7c-33.4-19.7-55.8-56.1-55.8-97.6c0-19.3,4.8-37.4,13.3-53.3c1.7-0.8,3.4-1.5,5.1-2.3l-1-2.3  c-0.7,0.3-1.4,0.6-2.1,0.9c19.7-33.7,56.2-56.4,98-56.4c19.3,0,37.4,4.8,53.3,13.3c0.8,1.7,1.5,3.4,2.3,5.1l2.3-1  c-0.3-0.7-0.6-1.4-0.9-2.1c33.7,19.7,56.4,56.2,56.4,98c0,19.5-5,37.9-13.7,53.9c-1.5,0.7-3.1,1.4-4.7,2l0.9,2.3  c0.6-0.2,1.1-0.5,1.7-0.7C290.5,303.5,254.1,326,212.6,326z"></path> <path class="st0" d="M244.7,344.4l1.8,1.8c1.7-1.7,3.5-3.6,5.1-5.6l-1.9-1.6C248.1,340.9,246.4,342.8,244.7,344.4z"></path> <path class="st0" d="M148,280.5c1.7,0.4,3.3,0.7,5,1.1l0.5-2.5c-2.4-0.5-4.9-1-7.3-1.6l-0.5,2.2l-0.4,0.1c0.6,2.5,1.2,4.9,1.9,7.3  l2.4-0.7C149,284.5,148.5,282.5,148,280.5z"></path> <path class="st0" d="M137.9,220.3c0.1,2.5,0.1,5,0.3,7.5l2.5-0.1c-0.1-2.5-0.2-5-0.3-7.4L137.9,220.3z"></path> <path class="st0" d="M144.7,264.7l-2.5,0.4c0.4,2.5,0.9,5,1.4,7.4l2.4-0.5C145.6,269.6,145.2,267.1,144.7,264.7z"></path> <path class="st0" d="M140.3,212.6c0-2.4,0-4.9,0.1-7.3l-2.5-0.1c-0.1,2.4-0.1,4.9-0.1,7.3v0.2h2.5V212.6z"></path> <path class="st0" d="M144.7,160.8l-2.5-0.4c-0.4,2.4-0.8,4.9-1.2,7.4l2.5,0.4C143.9,165.7,144.3,163.3,144.7,160.8z"></path> <path class="st0" d="M142.6,249.9l-2.5,0.3c0.3,2.5,0.6,5,1,7.4l2.5-0.4C143.2,254.9,142.9,252.4,142.6,249.9z"></path> <path class="st0" d="M141.1,235.1l-2.5,0.2c0.2,2.5,0.4,5,0.6,7.5l2.5-0.2C141.5,240.1,141.3,237.6,141.1,235.1z"></path> <path class="st0" d="M219.8,358.8l0.5,2.5c2.5-0.5,4.9-1.2,7.4-2.2l-0.9-2.3C224.5,357.7,222.2,358.4,219.8,358.8z"></path> <path class="st0" d="M233.2,353.5l1.3,2.1c2.1-1.3,4.2-2.7,6.3-4.4l-1.6-2C237.3,350.9,235.3,352.3,233.2,353.5z"></path> <path class="st0" d="M246.2,78.7c-1.9-1.8-3.8-3.5-5.7-5l-1.5,2c1.9,1.5,3.7,3.1,5.5,4.9L246.2,78.7z"></path> <path class="st0" d="M142.5,175.6l-2.5-0.3c-0.3,2.5-0.6,5-0.8,7.5l2.5,0.2C142,180.5,142.2,178,142.5,175.6z"></path> <path class="st0" d="M287.8,204.8c-0.1-2.5-0.2-5-0.3-7.5l-2.5,0.1c0.1,2.4,0.2,4.9,0.3,7.4L287.8,204.8z"></path> <path class="st0" d="M283.1,175.1l2.5-0.3c-0.3-2.5-0.7-5-1.1-7.4l-2.5,0.4C282.4,170.2,282.7,172.7,283.1,175.1z"></path> <path class="st0" d="M286.4,182.3l-2.5,0.3c0.3,2.4,0.5,4.9,0.7,7.4l2.5-0.2C286.9,187.3,286.7,184.7,286.4,182.3z"></path> <path class="st0" d="M277.2,144.6c-1.6-0.4-3.2-0.8-4.9-1.1l-0.5,2.4c2.4,0.5,4.9,1.1,7.2,1.7l0.6-2.2l0.4-0.1  c-0.6-2.5-1.3-4.9-2-7.3l-2.4,0.7C276.1,140.6,276.6,142.6,277.2,144.6z"></path> <path class="st0" d="M256,90.3c-1.5-2.1-3.1-4.1-4.6-6l-1.9,1.6c1.5,1.8,3.1,3.8,4.5,5.8L256,90.3z"></path> <path class="st0" d="M280.7,160.4l2.5-0.5c-0.5-2.5-1-4.9-1.5-7.4l-2.4,0.5C279.7,155.6,280.3,158,280.7,160.4z"></path> <path class="st0" d="M156.5,117.9l-2.3-0.9c-0.9,2.3-1.8,4.7-2.7,7l2.4,0.8C154.8,122.5,155.6,120.2,156.5,117.9z"></path> <path class="st0" d="M254.2,333.2l2,1.4c1.4-2,2.8-4.1,4.2-6.3l-2.1-1.3C256.9,329.1,255.5,331.2,254.2,333.2z"></path> <path class="st0" d="M151.6,131.9l-2.4-0.7c-0.7,2.4-1.4,4.8-2.1,7.2l2.4,0.7C150.2,136.6,150.9,134.2,151.6,131.9z"></path> <path class="st0" d="M138.6,190.2c-0.2,2.5-0.3,5-0.4,7.5l2.5,0.1c0.1-2.5,0.3-5,0.4-7.5L138.6,190.2z"></path> <path class="st0" d="M286.4,242.6l-2.5-0.3c-0.3,2.5-0.5,5-0.9,7.4l2.5,0.3C285.9,247.6,286.2,245.1,286.4,242.6z"></path> <path class="st0" d="M280.8,264.4l2.5,0.5c0.5-2.4,0.9-4.9,1.3-7.4l-2.5-0.4C281.6,259.5,281.2,262,280.8,264.4z"></path> <path class="st0" d="M205,361c2.4,0.5,5,0.9,7.6,1h0.1l0-2.5c-2.4-0.2-4.8-0.5-7.1-1L205,361z"></path> <path class="st0" d="M273.5,293.3l2.4,0.8c0.8-2.4,1.5-4.8,2.2-7.2l-2.4-0.7C275,288.5,274.2,290.9,273.5,293.3z"></path> <path class="st0" d="M268.3,307.2l2.3,1c1-2.3,1.9-4.6,2.8-7l-2.3-0.9C270.1,302.6,269.2,304.9,268.3,307.2z"></path> <path class="st0" d="M180.1,80.7l-1.7-1.8c-1.8,1.7-3.5,3.6-5.2,5.5l1.9,1.6C176.7,84.2,178.4,82.4,180.1,80.7z"></path> <path class="st0" d="M284.6,234.9l2.5,0.2c0.2-2.5,0.3-5,0.5-7.5l-2.5-0.1C285,229.9,284.8,232.4,284.6,234.9z"></path> <path class="st0" d="M191.7,72l-1.2-2.2c-2.2,1.2-4.3,2.6-6.4,4.2l1.5,2C187.6,74.5,189.7,73.1,191.7,72z"></path> <path class="st0" d="M170.5,91.9l-2-1.5c-1.4,2-2.8,4.1-4.2,6.3l2.1,1.3C167.7,95.9,169.1,93.8,170.5,91.9z"></path> <path class="st0" d="M285.5,212.6c0,2.5,0,5-0.1,7.4l2.5,0.1c0.1-2.5,0.1-5,0.1-7.5v-0.3h-2.5V212.6z"></path> <path class="st0" d="M149.3,294.3c0.8,2.4,1.6,4.8,2.4,7.1l2.4-0.8c-0.8-2.3-1.6-4.7-2.4-7L149.3,294.3z"></path> <path class="st0" d="M205.3,66.7l-0.5-2.4c-2.5,0.6-4.9,1.3-7.3,2.2l0.9,2.3C200.6,67.9,202.9,67.2,205.3,66.7z"></path> <path class="st0" d="M190.8,355.6c2.2,1.3,4.6,2.3,6.9,3.2l0.9-2.3c-2.2-0.9-4.4-1.9-6.6-3.1L190.8,355.6z"></path> <path class="st0" d="M168.7,335c1.5,2.1,3.1,4.1,4.7,5.9l1.9-1.6c-1.6-1.8-3.1-3.7-4.6-5.8L168.7,335z"></path> <path class="st0" d="M275.7,130.8c-0.8-2.4-1.6-4.8-2.5-7.1l-2.3,0.9c0.8,2.3,1.7,4.6,2.5,7L275.7,130.8z"></path> <path class="st0" d="M178.6,346.5c1.9,1.8,3.8,3.4,5.8,4.9l1.5-2c-1.9-1.4-3.8-3-5.6-4.7L178.6,346.5z"></path> <path class="st0" d="M212.6,65.6c2.3,0,4.6,0.2,6.9,0.7l0.5-2.5c-2.4-0.5-4.9-0.7-7.5-0.7l-0.2,0l0.2,2.5L212.6,65.6z"></path> <path class="st0" d="M234.3,69.4c-2.3-1.3-4.6-2.5-6.9-3.4l-0.9,2.3c2.2,0.9,4.4,1.9,6.5,3.2L234.3,69.4z"></path> <path class="st0" d="M91.8,171.2l-1.5-2c-2.1,1.5-4.1,3.1-6,4.6l1.6,1.9C87.8,174.2,89.7,172.7,91.8,171.2z"></path> <path class="st0" d="M65.7,212.6c0-2.3,0.2-4.6,0.7-6.9l-2.5-0.5c-0.5,2.4-0.7,4.9-0.7,7.5l0,0.2l2.5-0.2L65.7,212.6z"></path> <path class="st0" d="M80.5,180.7l-1.8-1.8c-1.8,1.9-3.5,3.8-5,5.7l2,1.5C77.1,184.3,78.8,182.5,80.5,180.7z"></path> <path class="st0" d="M78.9,246.8c1.7,1.8,3.6,3.5,5.5,5.2l1.6-1.9c-1.9-1.6-3.7-3.3-5.3-5L78.9,246.8z"></path> <path class="st0" d="M90.4,256.7c2,1.4,4.1,2.8,6.3,4.2l1.3-2.1c-2.1-1.3-4.2-2.7-6.2-4.1L90.4,256.7z"></path> <path class="st0" d="M69.8,234.7c1.2,2.2,2.6,4.3,4.2,6.4l2-1.5c-1.5-2-2.8-4-4-6.1L69.8,234.7z"></path> <path class="st0" d="M294,149.4c-2.3-0.8-4.8-1.5-7.2-2.2l-0.7,2.4c2.4,0.7,4.8,1.4,7.1,2.2L294,149.4z"></path> <path class="st0" d="M64.3,220.5c0.6,2.5,1.3,4.9,2.2,7.3l2.3-0.9c-0.9-2.3-1.6-4.6-2.1-6.9L64.3,220.5z"></path> <path class="st0" d="M71.5,192.2l-2.2-1.3c-1.3,2.3-2.5,4.6-3.4,6.9l2.3,0.9C69.2,196.5,70.3,194.3,71.5,192.2z"></path> <path class="st0" d="M334.6,169c-2-1.4-4.1-2.8-6.3-4.2L327,167c2.1,1.3,4.2,2.7,6.2,4.1L334.6,169z"></path> <path class="st0" d="M272,279.1c-2.4,0.5-4.9,1-7.3,1.4l0.4,2.5c2.5-0.4,5-0.9,7.4-1.4L272,279.1z"></path> <path class="st0" d="M280.6,277.1c0.4-1.6,0.8-3.2,1.1-4.9l-2.4-0.5c-0.5,2.4-1.1,4.9-1.7,7.2l2.2,0.5l0.1,0.4  c2.5-0.6,4.9-1.2,7.3-1.9l-0.7-2.4C284.6,276.1,282.6,276.6,280.6,277.1z"></path> <path class="st0" d="M249.9,282.6l0.3,2.5c2.5-0.3,5-0.6,7.4-1l-0.4-2.5C254.9,282,252.4,282.3,249.9,282.6z"></path> <path class="st0" d="M220.2,284.8l0.1,2.5c2.5-0.1,5-0.1,7.5-0.3l-0.1-2.5C225.2,284.6,222.7,284.7,220.2,284.8z"></path> <path class="st0" d="M235.1,284l0.2,2.5c2.5-0.2,5-0.4,7.5-0.6l-0.2-2.5C240,283.7,237.6,283.9,235.1,284z"></path> <path class="st0" d="M293.6,273.5l0.7,2.4c2.4-0.8,4.8-1.6,7.1-2.4l-0.8-2.4C298.4,272,296,272.8,293.6,273.5z"></path> <path class="st0" d="M355.7,190.7c-1.3-2.1-2.7-4.2-4.4-6.3l-2,1.6c1.6,2,3,4,4.2,6L355.7,190.7z"></path> <path class="st0" d="M301.2,151.8l-0.9,2.3c2.3,0.9,4.7,1.8,6.9,2.7l1-2.3C305.9,153.6,303.5,152.7,301.2,151.8z"></path> <path class="st0" d="M353.4,233.2l2.2,1.2c1.3-2.2,2.3-4.6,3.2-6.9l-2.3-0.9C355.6,228.8,354.6,231,353.4,233.2z"></path> <path class="st0" d="M361.3,204.9c-0.5-2.5-1.2-4.9-2.2-7.4l-2.3,0.9c0.9,2.3,1.6,4.6,2.1,6.9L361.3,204.9z"></path> <path class="st0" d="M344.7,244.9l1.8,1.7c1.8-1.9,3.4-3.8,4.9-5.8l-2-1.5C348,241.2,346.4,243.1,344.7,244.9z"></path> <path class="st0" d="M358.6,219.6l2.4,0.5c0.5-2.4,0.9-5,1-7.6v-0.1l-2.5,0C359.4,214.9,359.1,217.3,358.6,219.6z"></path> <path class="st0" d="M205.3,284.8l-0.1,2.5c2.4,0.1,4.9,0.1,7.3,0.1h0.2v-2.5h-0.2C210.2,284.8,207.7,284.8,205.3,284.8z"></path> <path class="st0" d="M340.6,173.6l-1.6,1.9c1.9,1.6,3.8,3.3,5.4,5l1.8-1.8C344.5,177,342.6,175.3,340.6,173.6z"></path> <path class="st0" d="M333.6,254.5l1.5,2c2.1-1.5,4.1-3.1,5.9-4.7l-1.6-1.9C337.5,251.5,335.6,253,333.6,254.5z"></path> <path class="st0" d="M264.9,142c-2.4-0.5-4.9-0.9-7.4-1.3l-0.4,2.5c2.4,0.4,4.9,0.8,7.3,1.3L264.9,142z"></path> <path class="st0" d="M190.2,286.6c2.5,0.2,5,0.3,7.5,0.4l0.1-2.5c-2.5-0.1-5-0.3-7.5-0.4L190.2,286.6z"></path> <path class="st0" d="M175.2,142.1l-0.3-2.5c-2.5,0.3-5,0.7-7.4,1.1l0.4,2.5C170.2,142.8,172.7,142.5,175.2,142.1z"></path> <path class="st0" d="M204.8,139.8l-0.1-2.5c-2.5,0.1-5,0.2-7.5,0.3l0.1,2.5C199.9,140,202.4,139.9,204.8,139.8z"></path> <path class="st0" d="M235.1,138.1c-2.5-0.2-5-0.3-7.5-0.5l-0.1,2.5c2.5,0.1,5,0.3,7.4,0.5L235.1,138.1z"></path> <path class="st0" d="M220,139.8l0.1-2.5c-2.5-0.1-5-0.1-7.5-0.1h-0.3v2.5h0.3C215.1,139.7,217.6,139.8,220,139.8z"></path> <path class="st0" d="M250.1,139.6c-2.5-0.3-5-0.6-7.5-0.9l-0.3,2.5c2.5,0.3,5,0.5,7.4,0.9L250.1,139.6z"></path> <path class="st0" d="M153.2,146c2.4-0.5,4.9-1,7.3-1.5L160,142c-2.5,0.5-4.9,1-7.4,1.5L153.2,146z"></path> <path class="st0" d="M190,140.6l-0.2-2.5c-2.5,0.2-5,0.4-7.5,0.7l0.3,2.5C185,141,187.5,140.8,190,140.6z"></path> <path class="st0" d="M160.4,283c2.4,0.4,4.9,0.8,7.4,1.2l0.4-2.5c-2.5-0.4-5-0.8-7.4-1.2L160.4,283z"></path> <path class="st0" d="M131.2,276c2.3,0.7,4.8,1.4,7.2,2.1l0.7-2.4c-2.4-0.7-4.8-1.4-7.1-2.1L131.2,276z"></path> <path class="st0" d="M175.3,285.1c2.4,0.3,5,0.6,7.5,0.8l0.2-2.5c-2.5-0.2-5-0.5-7.4-0.8L175.3,285.1z"></path> <path class="st0" d="M144.7,148c-0.4,1.7-0.7,3.3-1.1,5l2.5,0.5c0.5-2.4,1-4.9,1.6-7.3l-2.2-0.5l-0.1-0.5c-2.4,0.6-4.9,1.3-7.3,2  l0.7,2.4C140.7,149.1,142.7,148.5,144.7,148z"></path> <path class="st0" d="M117,271c2.3,0.9,4.7,1.8,7,2.7l0.8-2.4c-2.4-0.8-4.7-1.7-6.9-2.6L117,271z"></path> <path class="st0" d="M131.6,151.8l-0.8-2.4c-2.4,0.8-4.8,1.6-7.1,2.5l0.9,2.3C126.9,153.4,129.3,152.6,131.6,151.8z"></path> <path class="st0" d="M423.5,282.8l-10.6-25.5l0-0.2l-19.9-47.5L311.8,13.7c-1.1-2.5-4.4-8.8-12-12c-7.7-3.2-14.4-1-17,0L13.7,113.4  c-11.3,4.7-16.7,17.7-12,29l111.7,269.1c3.5,8.5,11.8,13.7,20.5,13.7c2.8,0,5.7-0.5,8.5-1.7l269.1-111.7  C422.8,307.1,428.2,294.1,423.5,282.8z M408,303.4L138.9,415.1c-6.7,2.8-14.4-0.4-17.1-7.1L10.1,138.9c-2.8-6.7,0.4-14.3,7.1-17.1  L286.3,10.1c0.7-0.3,2.6-1,5.1-1c1.5,0,3.2,0.2,4.9,1c4.7,1.9,6.6,5.9,7.1,7.1L384.7,213l18.8,44.9l0,0.2l11.7,28.1  C417.9,292.9,414.7,300.6,408,303.4z"></path> <path class="st0" d="M220.3,165.3h-14.4c-4.5,0-11.1,3.6-11.1,8.1h36.6C231.4,168.9,224.8,165.3,220.3,165.3z"></path> <path class="st0" d="M133.7,192.6c-5.6,0-10.2,4.6-10.2,10.2v33.8c0,5.6,4.6,10.2,10.2,10.2V192.6z"></path> <path class="st0" d="M292.2,192.6v54.3c5.6,0,10.2-4.6,10.2-10.2v-33.8C302.4,197.1,297.9,192.6,292.2,192.6z"></path> <path class="st0" d="M282.8,232v-31.1c0-11.2-9.1-20.3-20.3-20.3h-99.1c-11.2,0-20.3,9.1-20.3,20.3V232c0,15,12.2,27.2,27.2,27.2  h21.5h3.3c2.7,0,8.4-3.9,10.5-5.6c4.4-3.4,10.4-3.4,14.9-0.1l0.3,0.2c2.1,1.6,7.7,5.5,10.4,5.5h3.3h21.2  C270.6,259.2,282.8,247,282.8,232z M232.2,251.1h-3c-2.4,0-7.4-3.1-9.3-4.3l-0.2-0.2c-4-2.6-9.4-2.6-13.3,0.1  c-1.9,1.3-7,4.4-9.4,4.4h-3h-19.2c-13.5,0-24.4-9.7-24.4-21.6v-24.7c0-8.9,8.2-16.1,18.2-16.1h88.9c10.1,0,18.2,7.2,18.2,16.1v24.7  c0,11.9-10.9,21.6-24.4,21.6H232.2z"></path></g></svg>